<svg viewBox="0 0 64 64" fill="none" xmlns="http://www.w3.org/2000/svg">
  <!-- Cup bowl -->
  <path d="M14 8H50L46 28C44 34 38 38 32 38C26 38 20 34 18 28L14 8Z" fill="#D4AF37"/>
  <!-- Cup inner -->
  <ellipse cx="32" cy="10" rx="17" ry="5" fill="#B8860B"/>
  <ellipse cx="32" cy="10" rx="14" ry="3.5" fill="#1E293B"/>
  <!-- Cup highlight -->
  <path d="M20 12C22 20 26 26 32 28" stroke="#FDE68A" stroke-width="1.5" opacity="0.4" fill="none" stroke-linecap="round"/>
  <!-- Decorative band on cup -->
  <path d="M18 20H46" stroke="#B8860B" stroke-width="1.5"/>
  <circle cx="26" cy="20" r="1.5" fill="#EF4444" stroke="#B91C1C" stroke-width="0.5"/>
  <circle cx="32" cy="20" r="1.5" fill="#3B82F6" stroke="#1D4ED8" stroke-width="0.5"/>
  <circle cx="38" cy="20" r="1.5" fill="#10B981" stroke="#047857" stroke-width="0.5"/>
  <!-- Stem -->
  <rect x="29" y="38" width="6" height="10" rx="1" fill="#C9A84C"/>
  <!-- Stem knob -->
  <ellipse cx="32" cy="43" rx="4" ry="2" fill="#D4AF37" stroke="#B8860B" stroke-width="0.5"/>
  <!-- Base -->
  <ellipse cx="32" cy="54" rx="14" ry="4" fill="#D4AF37" stroke="#B8860B" stroke-width="1"/>
  <ellipse cx="32" cy="53" rx="12" ry="2.5" fill="#C9A84C"/>
  <!-- Base foot -->
  <path d="M22 48L26 54M42 48L38 54" stroke="#B8860B" stroke-width="1" opacity="0.5"/>
  <!-- Outline -->
  <path d="M14 8H50L46 28C44 34 38 38 32 38C26 38 20 34 18 28L14 8Z" stroke="#8B6914" stroke-width="1.5"/>
</svg>
