<svg viewBox="0 0 64 64" fill="none" xmlns="http://www.w3.org/2000/svg">
  <!-- Body -->
  <path d="M24 30L20 50H28L30 38H34L36 50H44L40 30" fill="#059669"/>
  <!-- Torso -->
  <path d="M22 22C22 22 24 30 32 30C40 30 42 22 42 22L40 18H24L22 22Z" fill="#10B981"/>
  <!-- Arms -->
  <path d="M22 22L14 28L16 32L24 26" fill="#059669"/>
  <path d="M42 22L50 28L48 32L40 26" fill="#059669"/>
  <!-- Head -->
  <circle cx="32" cy="13" r="8" fill="#34D399"/>
  <!-- Face -->
  <circle cx="28" cy="12" r="1.5" fill="#064E3B"/>
  <circle cx="36" cy="12" r="1.5" fill="#064E3B"/>
  <path d="M29 17L32 18L35 17" stroke="#064E3B" stroke-width="1" fill="none" stroke-linecap="round"/>
  <!-- Headdress -->
  <path d="M24 8L32 2L40 8" fill="#047857" stroke="#065F46" stroke-width="1"/>
  <circle cx="32" cy="5" r="1.5" fill="#FBBF24"/>
  <!-- Chest jewel -->
  <circle cx="32" cy="24" r="2" fill="#FBBF24" stroke="#D97706" stroke-width="0.5"/>
  <!-- Jade texture -->
  <path d="M26 26C28 28 36 28 38 26" stroke="#047857" stroke-width="0.5" opacity="0.5"/>
  <!-- Base -->
  <rect x="18" y="50" width="28" height="6" rx="2" fill="#065F46" stroke="#064E3B" stroke-width="1"/>
  <!-- Outline -->
  <path d="M24 30L20 50H44L40 30" stroke="#064E3B" stroke-width="1"/>
</svg>
